# xmcd
#
# Track frame offsets: 
#        150
#        28240
#        43415
#        66222
#        78822
#        95410
#        112352
#        128782
#        141522
#
# Disc length: 2090 seconds
#
# Revision: 0
# Processed by: cddbd v1.5.2PL0 Copyright (c) Steve Scherf et al.
# Submitted via: ExactAudioCopy v0.99pb5
#
DISCID=87082809
DTITLE=Mighty Joe Young - Mighty Joe Young
DYEAR=1976
DGENRE=Blues
TTITLE0=Love Bone - Jody
TTITLE1=Mama-In-Law Blues
TTITLE2=Need A Friend
TTITLE3=Take My Advice (She Likes The Blues And Barbecue)
TTITLE4=New Orleans Women
TTITLE5=Takes Money
TTITLE6=Green Light
TTITLE7=Mean Hitchhiker
TTITLE8=I Give
EXTD=
EXTT0=
EXTT1=
EXTT2=
EXTT3=
EXTT4=
EXTT5=
EXTT6=
EXTT7=
EXTT8=
PLAYORDER=
